<svg width="100%" viewBox="0 0 1440 120" preserveAspectRatio="none" xmlns="http://www.w3.org/2000/svg">
<defs>
  <style>
    .w1a { animation: mv1 6s linear infinite; }
    .w1b { animation: mv1 6s linear infinite; transform: translateX(-100%); }
    .w2a { animation: mv2 9s linear infinite; }
    .w2b { animation: mv2 9s linear infinite; transform: translateX(-100%); }
    .w3a { animation: mv3 13s linear infinite; }
    .w3b { animation: mv3 13s linear infinite; transform: translateX(-100%); }
    .w4a { animation: mv4 18s linear infinite; }
    .w4b { animation: mv4 18s linear infinite; transform: translateX(-100%); }
    @keyframes mv1 { from { transform: translateX(0%); } to { transform: translateX(100%); } }
    @keyframes mv2 { from { transform: translateX(0%); } to { transform: translateX(100%); } }
    @keyframes mv3 { from { transform: translateX(0%); } to { transform: translateX(100%); } }
    @keyframes mv4 { from { transform: translateX(0%); } to { transform: translateX(100%); } }
  </style>

  <path id="p1" fill="#c9177e" d="M0,55 C60,35 120,75 180,55 C240,35 300,75 360,55 C420,35 480,75 540,55 C600,35 660,75 720,55 C780,35 840,75 900,55 C960,35 1020,75 1080,55 C1140,35 1200,75 1260,55 C1320,35 1380,75 1440,55 L1440,120 L0,120 Z"/>
  <path id="p2" fill="#7b2d8b" d="M0,65 C80,40 160,90 240,65 C320,40 400,90 480,65 C560,40 640,90 720,65 C800,40 880,90 960,65 C1040,40 1120,90 1200,65 C1280,40 1360,90 1440,65 L1440,120 L0,120 Z"/>
  <path id="p3" fill="#9e1f82" d="M0,75 C100,50 200,100 300,75 C400,50 500,100 600,75 C700,50 800,100 900,75 C1000,50 1100,100 1200,75 C1300,50 1400,100 1440,80 L1440,120 L0,120 Z"/>
  <path id="p4" fill="#4a1060" d="M0,88 C120,70 240,106 360,88 C480,70 600,106 720,88 C840,70 960,106 1080,88 C1200,70 1320,106 1440,88 L1440,120 L0,120 Z"/>
</defs>

<use href="#p4" class="w4a" opacity="1"/>
<use href="#p4" class="w4b" opacity="1"/>
<use href="#p3" class="w3a" opacity="0.85"/>
<use href="#p3" class="w3b" opacity="0.85"/>
<use href="#p2" class="w2a" opacity="0.75"/>
<use href="#p2" class="w2b" opacity="0.75"/>
<use href="#p1" class="w1a" opacity="0.65"/>
<use href="#p1" class="w1b" opacity="0.65"/>

<path fill="#0d1117" d="M0,108 C360,98 720,118 1080,105 C1200,100 1350,110 1440,106 L1440,120 L0,120 Z"/>
</svg>
